<svg viewBox="0 0 1024 1024" version="1.1"
  xmlns="http://www.w3.org/2000/svg" p-id="11131" width="128" height="128">
  <path d="M103.799999 737.228858a18.624 81.088 54.863 1 0 132.624002-93.337716 18.624 81.088 54.863 1 0-132.624002 93.337716Z" fill="#D1D2D3" p-id="11132"></path>
  <path d="M150.004741 802.888228a18.624 81.088 54.867 1 0 132.630518-93.328456 18.624 81.088 54.867 1 0-132.630518 93.328456Z" fill="#D1D2D3" p-id="11133"></path>
  <path d="M848.353265 705.790302a81.088 18.624 35.137 1 0 21.43747-30.460604 81.088 18.624 35.137 1 0-21.43747 30.460604Z" fill="#D1D2D3" p-id="11134"></path>
  <path d="M802.119158 771.40271a81.088 18.624 35.133 1 0 21.435345-30.4621 81.088 18.624 35.133 1 0-21.435345 30.4621Z" fill="#D1D2D3" p-id="11135"></path>
  <path d="M512 976.192c-282.304 0-512-229.632-512-512A514.432 514.432 0 0 1 207.616 52.544a24.128 24.128 0 0 1 36.48 9.6A293.568 293.568 0 0 0 512 236.416 293.504 293.504 0 0 0 779.968 62.08a24.128 24.128 0 0 1 36.48-9.6A514.432 514.432 0 0 1 1024 464.192c0 282.368-229.696 512-512 512zM213.632 109.312A466.048 466.048 0 0 0 48.32 464.192c0 255.68 208 463.68 463.68 463.68s463.68-208 463.68-463.68a466.048 466.048 0 0 0-165.312-354.88c-59.904 107.52-173.888 175.36-298.368 175.36s-238.464-67.84-298.368-175.36z" fill="#211D1E" p-id="11136"></path>
  <path d="M512 670.272a69.632 69.632 0 0 1-139.264 0" fill="#FFFFFF" p-id="11137"></path>
  <path d="M442.368 764.096a93.888 93.888 0 0 1-93.76-93.824 24.192 24.192 0 0 1 48.32 0 45.504 45.504 0 0 0 90.88 0 24.192 24.192 0 0 1 48.384 0c0 51.712-42.112 93.824-93.824 93.824z" fill="#211D1E" p-id="11138"></path>
  <path d="M651.264 670.272a69.632 69.632 0 0 1-139.264 0" fill="#FFFFFF" p-id="11139"></path>
  <path d="M581.632 764.096a93.888 93.888 0 0 1-93.76-93.824 24.192 24.192 0 0 1 48.32 0 45.504 45.504 0 0 0 90.88 0 24.192 24.192 0 0 1 48.32 0c0 51.712-42.048 93.824-93.76 93.824z" fill="#211D1E" p-id="11140"></path>
  <path d="M251.84 490.88l61.248-61.184 59.648 61.248" fill="#FFFFFF" p-id="11141"></path>
  <path d="M372.736 515.072a24.064 24.064 0 0 1-17.28-7.296l-42.624-43.712-43.904 43.904a24.128 24.128 0 1 1-34.176-34.112l61.248-61.248c4.48-4.48 10.624-7.04 17.088-7.04h0.128c6.464 0 12.608 2.624 17.152 7.296l59.648 61.184a24.128 24.128 0 0 1-17.28 41.024z" fill="#211D1E" p-id="11142"></path>
  <path d="M653.568 490.88l61.184-61.184 59.712 61.248" fill="#FFFFFF" p-id="11143"></path>
  <path d="M774.4 515.072a24.064 24.064 0 0 1-17.28-7.296l-42.56-43.648-43.904 43.84a24.128 24.128 0 1 1-34.176-34.112l61.184-61.248c4.544-4.48 10.688-7.04 17.088-7.04h0.192c6.4 0 12.608 2.624 17.152 7.296l59.648 61.184a24.128 24.128 0 0 1-17.28 41.024z" fill="#211D1E" p-id="11144"></path>
</svg>