<svg t="1591954465471" class="icon" viewBox="0 0 1024 1024" version="1.1" xmlns="http://www.w3.org/2000/svg" p-id="8497" width="128" height="128"><path d="M574.95082 1024H176.262295c-54.557377 0-96.52459-41.967213-96.52459-96.52459V197.245902c0-54.557377 41.967213-96.52459 96.52459-96.524591h562.360656c54.557377 0 96.52459 41.967213 96.52459 96.524591v566.557377c0 12.590164-8.393443 20.983607-20.983607 20.983606s-20.983607-8.393443-20.983606-20.983606V197.245902c0-29.377049-25.180328-54.557377-54.557377-54.557377H176.262295c-29.377049 0-54.557377 25.180328-54.557377 54.557377V923.278689c0 29.377049 25.180328 54.557377 54.557377 54.557377h398.688525c12.590164 0 20.983607 8.393443 20.983606 20.983606s-8.393443 25.180328-20.983606 25.180328z" fill="currentColor" p-id="8498"></path><path d="M898.098361 784.786885c-12.590164 0-20.983607-8.393443-20.983607-20.983606V113.311475c0-29.377049-25.180328-54.557377-54.557377-54.557377H176.262295c-12.590164 0-20.983607-8.393443-20.983606-20.983606s8.393443-20.983607 20.983606-20.983607h646.295082c54.557377 0 96.52459 41.967213 96.52459 96.52459v650.491804c0 12.590164-8.393443 20.983607-20.983606 20.983606z" fill="currentColor" p-id="8499"></path><path d="M730.229508 1024H637.901639c-12.590164 0-20.983607-8.393443-20.983606-20.983607s8.393443-20.983607 20.983606-20.983606h92.327869c33.57377 0 62.95082-29.377049 62.95082-62.95082v-83.934426c0-12.590164 8.393443-20.983607 20.983606-20.983607s20.983607 8.393443 20.983607 20.983607v83.934426c0 54.557377-46.163934 104.918033-104.918033 104.918033z" fill="currentColor" p-id="8500"></path><path d="M583.344262 344.131148c33.57377 0 62.95082 29.377049 62.95082 62.950819s-29.377049 62.95082-62.95082 62.95082-62.95082-29.377049-62.950819-62.95082 25.180328-62.95082 62.950819-62.950819m0-41.967214c-58.754098 0-104.918033 46.163934-104.918032 104.918033s46.163934 104.918033 104.918032 104.918033 104.918033-46.163934 104.918033-104.918033-50.360656-104.918033-104.918033-104.918033z" fill="currentColor" p-id="8501"></path><path d="M814.163934 784.786885c-8.393443 0-12.590164-4.196721-16.786885-8.393442l-92.327869-121.704918c-4.196721-4.196721-8.393443-8.393443-16.786885-8.393443s-12.590164 4.196721-16.786885 8.393443l-58.754099 79.737705c-12.590164 16.786885-29.377049 25.180328-50.360655 25.180327s-37.770492-8.393443-50.360656-25.180327l-163.672131-209.836066c-4.196721-4.196721-8.393443-8.393443-16.786885-8.393443s-12.590164 4.196721-16.786886 8.393443l-197.245901 251.803279c-8.393443 8.393443-20.983607 12.590164-29.377049 4.196721-8.393443-8.393443-12.590164-20.983607-4.196722-29.377049l197.245902-251.803279c12.590164-16.786885 29.377049-25.180328 50.360656-25.180328s37.770492 8.393443 50.360655 25.180328l163.672131 209.836066c4.196721 4.196721 8.393443 4.196721 16.786886 4.196721s12.590164-4.196721 16.786885-8.393443l58.754098-79.737705c12.590164-16.786885 29.377049-25.180328 50.360656-25.180327s37.770492 8.393443 50.360656 25.180327l92.327869 121.704918c8.393443 8.393443 4.196721 20.983607-4.196722 29.37705-4.196721 4.196721-8.393443 8.393443-12.590164 8.393442z" fill="currentColor" p-id="8502"></path></svg>